<svg width="130" height="387" viewBox="0 0 130 387" fill="none" xmlns="http://www.w3.org/2000/svg">
<path d="M107.964 64.9688C107.964 64.9688 110.789 27.829 109.459 21.0363C108.129 14.2437 106.879 -5.09198 114.193 1.26407C121.507 7.62012 118.909 22.041 118.909 22.041C118.909 22.041 125.849 61.2917 119.43 66.6169C113.011 71.942 107.964 64.9688 107.964 64.9688Z" fill="#A0616A"/>
<path d="M102.696 101.697C102.696 101.697 124.467 82.7442 123.29 66.6634C123.29 66.6634 110.345 56.9001 107.403 62.0689C104.462 67.2377 83.0777 87.4024 86.709 94.2624C90.3403 101.122 102.696 101.697 102.696 101.697Z" fill="#6C63FF"/>
<path d="M25.6182 67.8121C25.6182 67.8121 12.6738 32.779 12.0854 25.8872C11.497 18.9954 7.37831 0.0430245 2.08285 8.08343C-3.2126 16.1238 3.25964 29.3331 3.25964 29.3331C3.25964 29.3331 7.37834 68.9608 15.0273 72.4066C22.6763 75.8525 25.6182 67.8121 25.6182 67.8121Z" fill="#A0616A"/>
<path d="M60.9211 243.552H26.2065L24.4414 260.782L32.6788 262.505C32.6788 262.505 52.0954 256.762 63.2747 258.485C74.4539 260.208 60.9211 243.552 60.9211 243.552Z" fill="#A0616A"/>
<path d="M37.9742 241.255C37.9742 241.255 21.4995 230.343 18.5576 239.532C15.6157 248.721 5.02481 282.032 8.55511 285.477C12.0854 288.923 16.2041 282.606 16.2041 282.606C16.2041 282.606 23.2647 268.248 28.5601 267.674C33.8555 267.099 36.7975 262.505 36.7975 262.505C36.7975 262.505 21.4995 251.018 37.9742 241.255Z" fill="#2F2E41"/>
<path d="M69.7469 330.274C69.7469 330.274 63.2747 356.118 64.4515 360.138C65.6283 364.158 45.6232 361.861 45.6232 361.861L44.4464 354.395C44.4464 354.395 56.2141 336.017 56.2141 327.977C56.2141 319.936 69.7469 330.274 69.7469 330.274Z" fill="#A0616A"/>
<path d="M45.6232 349.226C45.6232 349.226 29.7369 360.713 37.9742 366.456C46.2116 372.199 76.8075 387.131 76.8075 387.131C76.8075 387.131 87.9867 388.854 79.7494 379.091C71.512 369.327 69.1585 367.604 68.5701 362.436C68.0588 358.994 66.8235 355.693 64.9419 352.739C64.9419 352.739 56.8025 368.753 45.6232 349.226Z" fill="#2F2E41"/>
<path d="M93.8706 211.391C93.8706 211.391 100.343 271.12 90.3403 290.072C80.3378 309.024 68.5702 334.868 69.1585 336.017C69.7469 337.166 52.0954 334.294 52.0954 329.125C52.0954 323.956 71.5121 272.268 71.5121 272.268C71.5121 272.268 63.2747 205.073 56.8025 200.479C50.3303 195.884 93.8706 211.391 93.8706 211.391Z" fill="#2F2E41"/>
<path opacity="0.1" d="M93.8706 211.391C93.8706 211.391 100.343 271.12 90.3403 290.072C80.3378 309.024 68.5702 334.868 69.1585 336.017C69.7469 337.166 52.0954 334.294 52.0954 329.125C52.0954 323.956 71.5121 272.268 71.5121 272.268C71.5121 272.268 63.2747 205.073 56.8025 200.479C50.3303 195.884 93.8706 211.391 93.8706 211.391Z" fill="black"/>
<path d="M80.572 42.8295C84.7778 43.5727 88.9445 45.8281 91.0361 49.6799C92.9871 53.2729 93.1112 58.0756 96.2151 60.6558C98.068 62.196 100.584 62.5522 102.652 63.7622C104.122 64.68 105.318 65.9603 106.119 67.4737C106.92 68.9871 107.297 70.68 107.213 72.3813C107.047 75.5499 105.335 78.5014 105.371 81.6744C105.418 85.7997 108.341 89.2056 111.089 92.1913L101.974 93.8425C100.597 94.2017 99.1519 94.2391 97.7569 93.9516C96.1824 93.4966 94.9036 92.2312 93.312 91.8454C91.0297 91.2921 88.7714 92.6472 86.735 93.8495C80.9383 97.2718 74.7229 99.8548 68.5299 102.427C66.708 103.183 64.6422 103.941 62.8444 103.125C61.3925 102.465 60.4895 100.925 59.1238 100.091C56.6781 98.5977 53.6072 99.7216 50.859 100.459C44.6439 102.105 38.0328 101.556 32.1925 98.9072C33.4515 97.4717 35.1017 96.4677 36.4584 95.1312C37.8152 93.7946 38.9128 91.9019 38.5544 89.9984C38.1888 88.0572 36.479 86.7613 35.3136 85.1946C34.4528 83.9534 33.8539 82.5573 33.5518 81.0878C33.2497 79.6182 33.2506 78.1047 33.5543 76.6354C34.1659 73.7128 35.6224 71.0223 37.7515 68.8822C38.9667 67.7718 40.1132 66.5918 41.1848 65.3485C43.3293 62.5218 43.8601 58.7796 44.5462 55.2555C45.2322 51.7314 46.3153 47.981 49.1 45.8351C53.5363 42.4165 60.7405 43.5818 65.9267 43.2425C70.8714 42.919 75.6388 42.8295 80.572 42.8295Z" fill="#2F2E41"/>
<path d="M109.757 170.614L98.5776 197.607C98.5776 197.607 149.767 252.167 120.936 259.633C92.1054 267.099 82.1029 253.89 63.8631 264.228C63.8631 264.228 55.0373 251.019 56.2141 242.978C56.2141 242.978 81.5146 238.384 95.0474 238.958C95.0474 238.958 58.5676 207.945 55.0373 206.796C51.507 205.648 39.7394 187.27 57.9792 172.337C76.2191 157.405 71.512 149.365 71.512 149.365L109.757 170.614Z" fill="#2F2E41"/>
<path d="M83.2797 77.0011C83.2797 77.0011 81.5146 94.8049 89.1636 97.1021C96.8126 99.3994 59.156 98.8251 59.156 98.8251C59.156 98.8251 67.9818 93.6562 63.8631 82.7443C59.7445 71.8323 83.2797 77.0011 83.2797 77.0011Z" fill="#A0616A"/>
<path opacity="0.1" d="M83.2797 77.0011C83.2797 77.0011 81.5146 94.8049 89.1636 97.1021C96.8126 99.3994 59.156 98.8251 59.156 98.8251C59.156 98.8251 67.9818 93.6562 63.8631 82.7443C59.7445 71.8323 83.2797 77.0011 83.2797 77.0011Z" fill="black"/>
<path d="M43.2697 108.014C43.2697 108.014 46.8 90.2104 53.8606 91.3591C60.9212 92.5077 75.0424 93.6563 76.8075 94.8049C78.5727 95.9536 87.9868 98.3074 87.9868 98.3074C87.9868 98.3074 84.4565 94.2306 87.9868 93.6563C91.5171 93.082 102.696 95.9536 103.873 98.2508C105.05 100.548 109.757 105.143 109.757 113.183C109.757 121.223 113.287 135.007 112.111 140.75C110.934 146.493 112.699 159.703 116.229 167.169C119.759 174.635 116.818 182.101 110.934 174.635C105.05 167.169 107.992 174.635 103.285 175.209C98.5777 175.783 77.3959 154.534 71.5121 159.703C65.6283 164.871 59.7445 168.317 58.5677 165.446C57.3909 162.574 63.2747 157.405 63.2747 155.108C63.2747 152.811 72.6889 162.574 62.6864 142.473C52.6839 122.372 62.098 116.629 43.2697 108.014Z" fill="#6C63FF"/>
<path d="M47.9768 106.865L43.2697 108.014C43.2697 108.014 26.2066 95.9535 21.4995 87.3387C16.7924 78.724 13.2621 71.8323 13.2621 71.8323C13.2621 71.8323 20.9111 62.6432 25.6182 66.0891C30.3252 69.5349 51.507 93.0819 51.507 93.0819L47.9768 106.865Z" fill="#6C63FF"/>
<path d="M69.7469 89.0618C59.6733 89.0618 51.507 81.0908 51.507 71.2581C51.507 61.4253 59.6733 53.4543 69.7469 53.4543C79.8205 53.4543 87.9868 61.4253 87.9868 71.2581C87.9868 81.0908 79.8205 89.0618 69.7469 89.0618Z" fill="#A0616A"/>
<path d="M85.8825 66.1006C82.7656 63.5769 78.7851 62.2991 74.742 62.5243C67.7503 62.9443 61.5956 67.8074 54.5923 67.9593C54.8727 66.4813 54.6617 64.9545 53.9901 63.6019C53.447 62.5155 52.5899 61.4629 52.7052 60.2594C52.8973 59.3043 53.4331 58.4477 54.2159 57.8446C58.264 54.0979 63.861 52.1669 69.4343 51.929C73.1709 51.7695 80.3027 51.8559 83.2007 54.6176C85.6801 56.9805 85.3918 63.0378 85.8825 66.1006Z" fill="#2F2E41"/>
</svg>
