<svg width="529" height="389" viewBox="0 0 529 389" fill="none" xmlns="http://www.w3.org/2000/svg">
<g id="Group 5">
<path id="Vector" d="M264.5 0C118.421 0 0 73.4099 0 163.966C0 204.399 23.6234 241.407 62.7627 269.996V389L146.608 310.77C184.677 322.305 224.474 328.099 264.5 327.931C410.579 327.931 529 254.521 529 163.966C529 73.4099 410.579 0 264.5 0Z" fill="#FFBF00"/>
<g id="brain 1" clip-path="url(#clip0)">
<g id="Group">
<path id="Vector_2" d="M356.464 140.775C355.988 140.102 355.751 139.325 355.81 138.548C357.117 122.337 353.85 110.424 346.126 103.173C339.651 97.1134 331.987 96.2329 330.026 96.1293C328.482 96.5955 327.115 97.1134 325.808 97.6831C337.809 102.914 346.067 113.687 346.067 126.17C346.067 139.17 337.096 150.357 324.263 155.277C332.462 156.417 340.185 154.086 340.72 153.931C342.799 153.258 345.176 154.242 345.889 156.054C346.661 157.867 345.592 159.887 343.453 160.56C342.918 160.716 336.68 162.632 328.838 162.632C323.016 162.632 316.243 161.544 310.302 157.919C310.064 157.919 309.767 157.919 309.53 157.919C297.113 157.919 286.182 152.532 279.587 144.297C278.874 144.763 278.042 144.971 277.211 144.971C276.319 144.971 275.428 144.712 274.715 144.194C272.933 143.002 272.636 140.775 274.062 139.221C274.537 138.652 275.012 138.082 275.488 137.512C273.884 133.939 273.052 130.106 273.052 126.066C273.052 115.811 278.577 106.747 287.191 100.894C287.726 100.221 288.499 99.7549 289.39 99.5477C295.152 96.2329 302.103 94.2648 309.53 94.2648C311.609 94.2648 313.629 94.4201 315.59 94.7309C317.907 93.1771 320.699 91.7787 323.907 90.5356C317.788 81.0574 308.757 82.5076 307.688 82.7148C307.034 82.8184 306.44 82.8184 305.787 82.7148L298.479 91.3643C297.707 92.2966 296.459 92.8145 295.212 92.8145C294.38 92.8145 293.548 92.6074 292.776 92.0894C290.994 90.95 290.578 88.7229 291.944 87.1691L299.43 78.416C284.459 68.368 272.458 75.2566 268.953 77.7426V250.008C274.418 258.502 280.3 262.904 286.479 262.956C286.538 262.956 286.597 262.956 286.657 262.956C297.172 262.956 307.629 250.785 310.777 246.071C311.371 245.191 312.441 244.518 313.629 244.362C318.917 243.585 322.659 241.721 324.679 238.872C328.422 233.486 325.63 225.924 325.63 225.872C324.976 224.111 325.927 222.246 327.887 221.521C344.463 215.306 345.889 201.788 345.295 194.382C340.661 196.66 336.086 197.8 331.749 197.8C329.729 197.8 327.709 197.541 325.749 197.075C312.619 193.76 306.797 180.346 306.559 179.776C305.787 177.963 306.856 175.891 308.936 175.218C311.015 174.545 313.332 175.477 314.164 177.29C314.223 177.445 318.857 187.959 328.066 190.29C333.234 191.585 339.235 190.031 345.829 185.628C346.126 185.421 346.423 185.266 346.72 185.162C376.366 167.449 357.295 141.863 356.464 140.775ZM306.856 214.788C306.856 216.756 305.015 218.31 302.816 218.31C290.934 218.31 283.983 235.557 283.924 235.713C283.33 237.215 281.785 238.147 280.062 238.147C279.646 238.147 279.231 238.095 278.755 237.94C276.616 237.318 275.488 235.298 276.201 233.486C276.438 232.916 280.062 223.645 287.489 217.274C287.489 217.274 287.489 217.274 287.489 217.222C287.607 216.705 290.34 205.621 277.211 194.123C275.607 192.724 275.607 190.497 277.211 189.099C278.815 187.7 281.369 187.7 282.973 189.099C292.954 197.8 295.509 206.553 295.865 212.354C298.004 211.629 300.321 211.214 302.816 211.214C305.074 211.266 306.856 212.82 306.856 214.788Z" fill="white"/>
<path id="Vector_3" d="M260.873 77.5873C256.892 74.7387 244.297 67.9019 228.673 79.7108C232.594 84.1651 238.832 91.209 241.267 93.3325C242.872 94.7309 242.872 96.9581 241.267 98.3565C240.495 99.0298 239.426 99.3923 238.416 99.3923C237.406 99.3923 236.336 99.0298 235.564 98.3565C232.237 95.456 223.92 85.926 221.009 82.6113C218.097 82.4041 211.087 82.8184 206.037 90.6392C227.068 98.6672 227.306 114.982 227.306 115.707C227.306 117.675 225.464 119.229 223.266 119.229C221.009 119.229 219.226 117.675 219.226 115.707C219.226 115.086 218.751 101.93 199.918 96.1294C197.779 96.2847 190.234 97.217 183.818 103.277C176.154 110.58 172.886 122.44 174.253 138.548C174.312 139.325 174.075 140.102 173.599 140.775C172.768 141.863 153.578 167.863 183.818 185.421L183.877 185.473C183.937 185.525 183.996 185.525 183.996 185.577C189.165 188.995 193.918 190.704 198.254 190.652C201.403 184.282 207.463 179.31 215.008 177.031C213.345 169.831 214.652 162.373 216.85 156.469C214.592 156.935 212.394 157.142 210.255 157.142C194.155 157.142 182.748 144.919 182.214 144.297C180.788 142.795 181.085 140.568 182.867 139.325C184.59 138.082 187.145 138.341 188.571 139.895C189.105 140.465 202.116 154.242 218.038 148.752C226.296 145.903 231.405 142.381 235.505 139.584C240.555 136.166 245.307 132.903 251.664 135.648C253.684 136.528 254.457 138.652 253.506 140.413C252.496 142.174 250.06 142.847 248.04 142.018C246.496 141.345 245.426 141.811 240.495 145.178C237.287 147.405 233.128 150.202 227.247 152.843C227.187 153.102 227.068 153.361 226.95 153.62C226.593 154.293 220.474 165.222 222.969 175.684C223.444 175.684 223.979 175.632 224.454 175.632C231.108 175.632 237.287 177.652 242.099 181.019C242.337 180.138 242.872 179.361 243.822 178.844C245.129 178.067 251.486 173.768 246.496 167.242C245.248 165.636 245.783 163.409 247.624 162.321C249.466 161.234 252.021 161.7 253.268 163.305C260.457 172.732 254.278 181.278 248.337 184.748C247.862 185.007 247.387 185.162 246.911 185.266C250.654 189.461 252.912 194.744 252.912 200.441C252.912 211.422 244.713 220.693 233.366 223.956C229.623 231.207 230.99 236.8 231.108 237.111C231.584 239.028 230.277 240.892 228.138 241.358C227.841 241.41 227.484 241.462 227.187 241.462C225.346 241.462 223.741 240.426 223.266 238.82C223.147 238.458 221.662 232.812 224.276 225.199C208.711 225.043 196.175 214.063 196.175 200.441C196.175 199.509 196.235 198.577 196.353 197.696C192.611 197.437 188.808 196.298 184.887 194.433C184.293 201.892 185.778 215.358 202.354 221.521C204.314 222.246 205.265 224.163 204.611 225.872C204.611 225.924 201.819 233.537 205.562 238.872C207.582 241.773 211.265 243.585 216.612 244.362C217.8 244.518 218.81 245.139 219.464 246.071C222.613 250.785 233.128 262.956 243.584 262.956C243.644 262.956 243.703 262.956 243.763 262.956C249.882 262.853 255.704 258.605 261.17 250.215V77.5873H260.873ZM198.017 136.735C187.977 136.735 179.778 129.588 179.778 120.835C179.778 112.082 187.977 104.934 198.017 104.934C208.057 104.934 216.256 112.082 216.256 120.835C216.256 129.588 208.057 136.735 198.017 136.735Z" fill="white"/>
</g>
<path id="Vector_4" d="M363.949 137.927C365.197 120.265 361.157 106.902 352.008 98.3565C344.879 91.6751 336.502 89.7588 332.284 89.2408C325.808 77.3283 314.817 75.0494 308.163 75.5673C288.677 59.7703 271.507 67.4876 264.972 71.5275C258.437 67.4358 241.267 59.7185 221.84 75.5155C215.127 74.9458 204.136 77.2765 197.72 89.189C193.502 89.707 185.125 91.6233 177.996 98.3047C168.846 106.902 164.807 120.213 166.054 137.875C164.331 140.413 160.291 147.198 159.044 155.692C157.677 165.325 159.757 178.895 177.045 189.927C175.025 200.234 176.926 217.948 195.819 226.649C195.046 230.378 194.512 236.904 198.373 242.446C201.403 246.797 206.394 249.697 213.226 250.992C216.672 255.653 228.554 270 243.406 270C243.525 270 243.584 270 243.703 270C251.664 269.896 258.853 265.805 265.091 257.829C271.388 265.805 278.577 269.948 286.479 270C286.597 270 286.657 270 286.776 270C301.628 270 313.51 255.653 316.956 250.992C323.788 249.697 328.779 246.797 331.808 242.446C335.67 236.904 335.135 230.378 334.363 226.649C353.196 217.948 355.097 200.182 353.137 189.927C383.198 170.66 367.752 143.676 363.949 137.927ZM346.72 185.111C346.423 185.214 346.126 185.369 345.829 185.577C339.235 189.979 333.234 191.533 328.066 190.238C318.916 187.907 314.223 177.393 314.164 177.238C313.391 175.425 311.074 174.493 308.936 175.166C306.856 175.84 305.787 177.859 306.559 179.724C306.797 180.294 312.619 193.708 325.749 197.023C327.709 197.541 329.729 197.748 331.749 197.748C336.145 197.748 340.661 196.609 345.295 194.33C345.889 201.736 344.463 215.306 327.887 221.47C325.986 222.195 324.976 224.111 325.63 225.82C325.63 225.872 328.422 233.486 324.679 238.82C322.659 241.721 318.976 243.534 313.629 244.31C312.441 244.466 311.431 245.087 310.777 246.02C307.629 250.733 297.113 262.904 286.657 262.904C286.597 262.904 286.538 262.904 286.479 262.904C280.3 262.801 274.418 258.45 268.953 249.956V77.7427C272.458 75.2048 284.399 68.368 299.43 78.416L292.004 87.1691C290.637 88.7229 291.053 90.95 292.835 92.0895C293.548 92.5556 294.439 92.8146 295.271 92.8146C296.519 92.8146 297.707 92.2966 298.539 91.3644L305.906 82.7666C306.5 82.8702 307.153 82.922 307.807 82.7666C308.876 82.5595 317.907 81.1092 324.026 90.5874C320.758 91.8305 318.025 93.2289 315.708 94.7827C302.816 103.277 302.638 115.086 302.638 115.707C302.638 117.675 304.48 119.229 306.678 119.229C308.876 119.229 310.718 117.624 310.718 115.707C310.718 115.604 310.896 104.054 325.808 97.6832C327.115 97.1134 328.541 96.5955 330.026 96.1294C331.987 96.2329 339.651 97.1134 346.126 103.173C353.909 110.424 357.177 122.337 355.81 138.548C355.751 139.325 355.988 140.102 356.464 140.775C357.295 141.863 376.366 167.449 346.72 185.111ZM243.466 262.956C243.406 262.956 243.347 262.956 243.287 262.956C232.772 262.956 222.316 250.785 219.167 246.071C218.573 245.191 217.503 244.518 216.315 244.362C211.028 243.585 207.285 241.721 205.265 238.872C201.522 233.486 204.314 225.924 204.314 225.872C204.968 224.111 204.017 222.246 202.057 221.521C185.541 215.358 184.055 201.892 184.59 194.433C188.511 196.35 192.373 197.437 196.056 197.696C196.71 197.748 197.363 197.8 197.957 197.8C199.977 197.8 201.997 197.541 203.958 197.075C211.087 195.262 216.018 190.549 219.107 186.457C221.306 189.513 224.336 192.31 228.435 194.692C229.148 195.107 229.92 195.262 230.692 195.262C231.999 195.262 233.306 194.692 234.079 193.708C235.326 192.103 234.792 189.876 232.95 188.788C226.831 185.214 223.92 180.553 222.791 175.736C220.296 165.274 226.415 154.293 226.771 153.672C226.89 153.413 227.009 153.154 227.068 152.895C232.95 150.254 237.049 147.405 240.317 145.23C245.248 141.863 246.317 141.397 247.862 142.07C249.882 142.951 252.318 142.226 253.328 140.465C254.338 138.704 253.506 136.58 251.486 135.7C245.129 132.955 240.376 136.166 235.326 139.636C231.227 142.433 226.118 145.955 217.86 148.803C201.997 154.345 188.986 140.568 188.392 139.947C186.967 138.445 184.412 138.186 182.689 139.377C180.966 140.62 180.669 142.847 182.035 144.349C182.63 144.971 194.036 157.194 210.077 157.194C212.216 157.194 214.414 156.987 216.672 156.521C214.473 162.425 213.166 169.883 214.83 177.083C214.889 177.393 215.008 177.756 215.068 178.067C213.76 180.604 209.245 188.322 201.581 190.238C200.453 190.549 199.264 190.652 198.076 190.652C193.739 190.704 188.986 188.995 183.818 185.577C183.758 185.525 183.699 185.525 183.699 185.473L183.64 185.421C153.4 167.863 172.589 141.863 173.421 140.775C173.896 140.102 174.134 139.325 174.075 138.548C172.767 122.44 175.976 110.58 183.64 103.277C189.996 97.217 197.542 96.2847 199.74 96.1294C218.513 101.93 218.989 115.086 219.048 115.707C219.048 117.675 220.89 119.229 223.088 119.229C225.345 119.229 227.128 117.624 227.128 115.707C227.128 114.982 226.89 98.6672 205.859 90.6392C210.909 82.8184 217.919 82.4041 220.83 82.6113C223.741 85.926 232.059 95.456 235.386 98.3565C236.158 99.0298 237.228 99.3923 238.237 99.3923C239.247 99.3923 240.317 99.0298 241.089 98.3565C242.693 96.958 242.693 94.7309 241.089 93.3325C238.713 91.209 232.415 84.2169 228.494 79.7108C244.119 67.9019 256.714 74.7386 260.695 77.5873V250.215C255.466 258.554 249.585 262.853 243.466 262.956Z" fill="#5F5F5F"/>
<g id="Group_2">
<path id="Vector_5" d="M224.038 225.147C225.702 220.278 229.029 214.633 235.505 208.987C237.109 207.589 239.663 207.589 241.267 208.987C242.872 210.386 242.872 212.613 241.267 214.011C237.346 217.43 234.851 220.848 233.247 223.956C244.594 220.693 252.793 211.422 252.793 200.441C252.793 194.692 250.535 189.461 246.793 185.266C246.555 185.318 246.258 185.369 246.02 185.369C244.713 185.369 243.406 184.8 242.634 183.816C241.98 182.987 241.802 182.003 242.04 181.122C237.168 177.756 231.049 175.736 224.395 175.736C223.92 175.736 223.385 175.736 222.91 175.788C224.038 180.604 227.009 185.266 233.069 188.84C234.911 189.927 235.445 192.103 234.198 193.76C233.425 194.796 232.118 195.314 230.811 195.314C230.039 195.314 229.267 195.107 228.554 194.744C224.454 192.362 221.424 189.565 219.226 186.509C216.137 190.601 211.146 195.314 204.077 197.127C202.116 197.644 200.096 197.852 198.076 197.852C197.423 197.852 196.829 197.8 196.175 197.748C196.056 198.629 195.997 199.561 195.997 200.493C195.937 213.959 208.532 224.991 224.038 225.147Z" fill="#FA5858"/>
<path id="Vector_6" d="M198.254 190.652C199.443 190.652 200.631 190.497 201.76 190.238C209.424 188.322 213.939 180.604 215.246 178.067C215.127 177.756 215.068 177.393 215.008 177.083C207.463 179.31 201.403 184.282 198.254 190.652Z" fill="#FA5858"/>
</g>
<g id="Group_3">
<path id="Vector_7" d="M303.767 152.377C297.707 145.385 295.093 139.325 293.192 134.871C291.35 130.676 290.637 129.329 289.449 128.915C287.37 133.99 284.459 139.17 280.359 143.676C280.122 143.935 279.825 144.142 279.528 144.349C286.122 152.584 297.054 157.971 309.47 157.971C309.708 157.971 310.005 157.971 310.243 157.971C307.985 156.52 305.727 154.708 303.767 152.377Z" fill="#32936F"/>
<path id="Vector_8" d="M289.39 99.5995C289.746 99.4959 290.103 99.4441 290.459 99.4441C292.717 99.3923 294.558 100.998 294.558 102.914C294.558 103.484 294.677 111.978 291.766 122.078C296.875 123.476 298.776 127.775 300.737 132.333C302.579 136.58 304.896 141.915 310.183 148.078C314.045 152.584 319.214 154.501 324.145 155.226C336.977 150.305 345.948 139.118 345.948 126.118C345.948 113.636 337.69 102.811 325.689 97.6313C310.777 104.054 310.599 115.552 310.599 115.655C310.599 117.624 308.757 119.177 306.559 119.177C304.361 119.177 302.519 117.572 302.519 115.655C302.519 115.034 302.698 103.225 315.59 94.7309C313.629 94.4202 311.609 94.2648 309.53 94.2648C302.103 94.3166 295.152 96.2847 289.39 99.5995Z" fill="#32936F"/>
<path id="Vector_9" d="M286.479 103.07C286.479 102.293 286.716 101.568 287.191 100.998C278.577 106.799 273.052 115.914 273.052 126.17C273.052 130.209 273.943 134.094 275.488 137.616C286.657 123.632 286.479 103.277 286.479 103.07Z" fill="#32936F"/>
</g>
<path id="Vector_10" d="M198.01 136.721C208.083 136.721 216.249 129.602 216.249 120.821C216.249 112.039 208.083 104.92 198.01 104.92C187.937 104.92 179.771 112.039 179.771 120.821C179.771 129.602 187.937 136.721 198.01 136.721Z" fill="#E83F6F"/>
<g id="Group_4">
<path id="Vector_11" d="M241.267 208.987C239.663 207.589 237.109 207.589 235.505 208.987C229.029 214.633 225.702 220.278 224.038 225.147C221.424 232.761 222.969 238.406 223.028 238.769C223.504 240.374 225.108 241.41 226.95 241.41C227.247 241.41 227.603 241.358 227.9 241.306C230.039 240.84 231.405 238.924 230.871 237.059C230.811 236.749 229.385 231.155 233.128 223.904C234.732 220.796 237.228 217.43 241.149 213.959C242.812 212.613 242.812 210.386 241.267 208.987Z" fill="#5F5F5F"/>
<path id="Vector_12" d="M310.243 148.13C304.896 141.915 302.638 136.632 300.796 132.385C298.836 127.827 296.935 123.528 291.825 122.13C294.677 112.03 294.618 103.536 294.618 102.966C294.558 100.998 292.776 99.3922 290.518 99.4958C290.162 99.4958 289.806 99.5476 289.449 99.6512C288.558 99.8584 287.786 100.376 287.251 100.998C286.776 101.568 286.479 102.293 286.538 103.07C286.538 103.277 286.716 123.632 275.547 137.616C275.072 138.186 274.597 138.755 274.121 139.325C272.755 140.879 273.052 143.106 274.775 144.297C275.547 144.815 276.379 145.074 277.27 145.074C278.102 145.074 278.933 144.815 279.646 144.401C279.943 144.194 280.241 143.986 280.478 143.727C284.577 139.221 287.489 134.042 289.568 128.966C290.697 129.381 291.469 130.727 293.311 134.923C295.212 139.377 297.826 145.437 303.886 152.429C305.906 154.759 308.104 156.572 310.421 157.971C316.362 161.596 323.075 162.684 328.957 162.684C336.799 162.684 343.096 160.768 343.572 160.612C345.651 159.939 346.78 157.919 346.008 156.106C345.235 154.293 342.918 153.309 340.839 153.983C340.304 154.138 332.581 156.52 324.382 155.329C319.273 154.552 314.104 152.636 310.243 148.13Z" fill="#5F5F5F"/>
<path id="Vector_13" d="M242.574 183.712C243.347 184.748 244.654 185.266 245.961 185.266C246.198 185.266 246.496 185.214 246.733 185.162C247.208 185.059 247.743 184.903 248.159 184.644C254.1 181.174 260.279 172.628 253.09 163.202C251.842 161.596 249.347 161.13 247.446 162.218C245.604 163.305 245.07 165.481 246.317 167.138C251.308 173.664 244.951 177.963 243.644 178.74C242.753 179.258 242.159 180.086 241.921 180.915C241.802 181.899 241.98 182.883 242.574 183.712Z" fill="#5F5F5F"/>
<path id="Vector_14" d="M302.816 211.266C300.321 211.266 298.004 211.681 295.865 212.406C295.45 206.657 292.954 197.852 282.973 189.15C281.369 187.752 278.815 187.752 277.211 189.15C275.607 190.549 275.607 192.776 277.211 194.174C290.4 205.673 287.667 216.756 287.489 217.274C287.489 217.274 287.489 217.274 287.489 217.326C280.062 223.697 276.438 232.968 276.201 233.537C275.488 235.402 276.616 237.37 278.755 237.992C279.171 238.095 279.587 238.199 280.062 238.199C281.785 238.199 283.33 237.267 283.924 235.765C283.983 235.609 290.934 218.362 302.816 218.362C305.074 218.362 306.856 216.756 306.856 214.84C306.856 212.924 305.074 211.266 302.816 211.266Z" fill="#5F5F5F"/>
</g>
</g>
</g>
<defs>
<clipPath id="clip0">
<rect width="234" height="204" fill="white" transform="translate(148 66)"/>
</clipPath>
</defs>
</svg>
