<svg width="255" height="393" viewBox="0 0 255 393" fill="none" xmlns="http://www.w3.org/2000/svg">
<path d="M168.8 320.605C168.8 320.605 168.511 351.811 165.619 356.056C162.726 360.302 147.598 356.252 147.598 356.252L148.708 321.954C146.704 315.369 146.26 308.468 146.31 303.295C146.31 301.642 146.382 300.141 146.465 298.924C146.626 296.4 146.848 294.912 146.848 294.912L139.536 267.673C138.854 258.779 129.504 241.179 129.504 241.179C129.504 241.179 130.015 265.522 131.886 271.124C133.757 276.725 134.107 298.747 134.107 298.747C134.107 298.747 139.209 326.957 139.548 328.698C139.886 330.439 144.139 338.356 144.139 338.356C144.139 338.356 143.289 348.013 144.311 349.754C145.333 351.495 149.58 365.02 148.558 367.531C147.537 370.041 129.177 366.559 129.177 364.629C129.177 363.613 127.844 359.122 126.584 355.123L125.773 352.561C125.007 350.183 124.413 348.404 124.413 348.404C124.413 348.404 117.329 328.811 113.626 314.158C113.471 313.527 113.326 312.946 113.182 312.36C113.015 311.666 112.86 310.991 112.716 310.329C112.202 308.13 111.811 305.897 111.544 303.642C111.405 302.534 111.388 301.411 111.494 300.299C112.682 291.215 105.032 270.739 105.032 270.739C105.032 270.739 96.3598 239.438 94.8275 237.892C93.2952 236.347 91.4242 221.283 90.7469 214.71C90.5914 213.171 90.3194 211.253 89.9918 209.216C89.8808 208.49 89.7587 207.752 89.6365 207.008C88.5983 200.921 87.3214 194.619 87.3214 194.619L106.392 180.318L156.553 174.136C156.553 174.136 157.952 186.349 159.712 199.81C159.834 200.744 159.962 201.703 160.089 202.643C161.755 215.297 163.715 228.392 165.053 233.06C167.94 243.109 167.94 273.054 168.795 288.313C169.65 303.573 168.8 320.605 168.8 320.605Z" fill="#63667E"/>
<path opacity="0.1" d="M119.461 191.982L125.774 228.601H128.771L122.776 190.708L119.461 191.982Z" fill="black"/>
<path opacity="0.1" d="M90.0141 209.222C89.9031 208.497 89.781 207.758 89.6588 207.014C92.5957 206.333 99.2413 203.551 98.2086 192.398H100.246C100.246 192.398 102.178 207.09 90.0141 209.222Z" fill="black"/>
<path opacity="0.1" d="M160.112 202.668C156.303 203.463 144.4 205.79 141.907 204.251C138.937 202.416 136 192.468 136 192.468L138.72 191.982C138.72 191.982 136.322 206.573 159.734 199.836C159.856 200.769 159.984 201.715 160.112 202.668Z" fill="black"/>
<path d="M159.084 190.632C155.653 192.897 147.598 193.988 138.221 194.417C137.366 194.455 136.505 194.493 135.628 194.518C120.427 195.06 102.678 194.083 95.6048 193.622C93.6117 193.496 92.468 193.408 92.468 193.408L98.675 188.531L108.879 184.28L130.343 179.498L157.846 178.628L158.124 181.309L159.084 190.632Z" fill="#33363D"/>
<path d="M138.221 194.442C137.366 194.48 136.505 194.518 135.628 194.543C134.551 189.358 131.153 181.069 131.153 181.069L134.04 180.634L138.221 194.442Z" fill="#63667E"/>
<path d="M22.415 205.197C22.415 205.197 21.2158 206.774 19.3726 208.907C13.7763 215.372 2.25625 226.923 0.290897 215.051C-1.74663 202.744 7.44166 194.865 11.6 191.95C12.777 191.124 13.5487 190.689 13.5487 190.689L22.415 205.197Z" fill="#FFA2A2"/>
<path d="M228.171 61.5681C228.171 61.5681 229.927 60.6509 232.502 59.5052C240.317 56.0336 255.656 50.4802 252.385 62.0606C248.994 74.0656 237.328 77.2882 232.325 78.1572C229.5 78 230 77.5003 230 77.5003L228.171 61.5681Z" fill="#FFA2A2"/>
<path d="M125.457 66.1665C125.457 66.1665 118.956 61.53 117.746 61.9653C116.535 62.4005 117.746 68.6203 117.746 68.6203C116.178 72.0193 113.698 74.7633 110.667 76.455C107.192 78.5194 103.827 80.8153 100.59 83.3309C98.0846 83.0532 95.5554 83.3738 93.1652 84.2722C90.7749 85.1706 88.5764 86.627 86.7107 88.5477C85.4063 89.5442 83.9306 90.2148 82.3811 90.5149C80.8316 90.815 79.2436 90.7379 77.7223 90.2887C72.6812 88.6991 72.4314 80.877 73.1309 77.9059C73.6861 75.5719 82.0916 69.5161 85.7114 66.9928C86.7107 66.2989 87.3436 65.8763 87.3436 65.8763C87.3436 65.8763 103.677 65.2455 107.364 57.3288C108.498 54.882 110.189 52.8256 112.26 51.3739L112.355 51.3172L112.821 51.0017L112.971 50.9071C114.687 49.8327 116.574 49.1592 118.523 48.9264C126.501 54.7172 125.457 66.1665 125.457 66.1665Z" fill="#CED7E7"/>
<path opacity="0.1" d="M125.457 66.1665C125.457 66.1665 118.956 61.53 117.746 61.9653C116.535 62.4005 117.746 68.6203 117.746 68.6203C116.178 72.0193 113.698 74.7633 110.667 76.455C107.192 78.5194 103.827 80.8153 100.59 83.3309C98.0846 83.0532 95.5554 83.3738 93.1652 84.2722C90.7749 85.1706 88.5764 86.627 86.7107 88.5477C85.4063 89.5442 83.9306 90.2148 82.3811 90.5149C80.8316 90.815 79.2436 90.7379 77.7223 90.2887C72.6812 88.6991 72.4314 80.877 73.1309 77.9059C73.6861 75.5719 82.0916 69.5161 85.7114 66.9928C86.7107 66.2989 87.3436 65.8763 87.3436 65.8763C87.3436 65.8763 103.677 65.2455 107.364 57.3288C108.498 54.882 110.189 52.8256 112.26 51.3739L112.355 51.3172L112.821 51.0017L112.971 50.9071C114.687 49.8327 116.574 49.1592 118.523 48.9264C126.501 54.7172 125.457 66.1665 125.457 66.1665Z" fill="black"/>
<path opacity="0.1" d="M158.124 181.334C155.065 178.047 136.022 184.034 136.022 184.034C136.022 184.034 122.909 188.311 112.904 189.005C111.542 189.107 110.176 189.126 108.813 189.061C104.61 188.815 100.229 190.746 96.5542 193.061L95.627 193.691C93.6339 193.565 92.4902 193.477 92.4902 193.477L98.6972 188.601L108.901 184.349L130.365 179.568L157.869 178.697L158.124 181.334Z" fill="black"/>
<path opacity="0.1" d="M19.3725 208.907C20.6439 199.28 14.0705 193.685 11.6 191.95C12.777 191.124 13.5487 190.689 13.5487 190.689L22.4316 205.197C22.4316 205.197 21.2158 206.774 19.3725 208.907Z" fill="black"/>
<path d="M230.031 77.7607C230.031 77.7607 216.424 79.6532 210.989 87.8033C205.553 95.9534 193.811 95.1459 193.811 95.1459C193.811 95.1459 183.607 101.328 173.408 101.713C167.351 101.94 164.525 103.668 163.237 105.037C162.19 106.182 161.048 107.211 159.828 108.109C155.198 111.377 154.471 116.013 154.787 119.59C155.184 123.839 155.379 128.11 155.37 132.383C155.248 144.368 157.086 165.273 157.086 165.273C157.086 165.273 161.166 183.434 158.102 180.154C155.037 176.874 136 182.854 136 182.854C136 182.854 122.886 187.131 112.882 187.831C111.52 187.932 110.154 187.949 108.79 187.882C104.588 187.636 100.207 189.566 96.5319 191.887C93.3693 193.914 90.4112 196.328 87.71 199.085C84.4567 189.919 85.8113 178.129 86.8773 172.036C87.3753 169.222 87.2455 166.312 86.4997 163.57L81.5864 145.668C81.5864 145.668 70.8769 149.818 65.7747 160.637C60.6726 171.455 37.3771 192.323 32.7802 193.679C30.676 194.31 29.3214 196.171 28.472 198.025C27.3798 200.505 25.8466 202.7 23.9694 204.472C22.2295 206.136 20.7307 208.101 19.5279 210.294C22.5926 197.155 11.2002 190.777 11.2002 190.777C11.2002 190.777 15.786 189.036 17.657 182.097C19.528 175.158 28.2055 167.998 28.2055 167.998C28.2055 167.998 37.0495 150.222 42.1517 147.32C47.2538 144.419 56.4366 130.516 56.4366 130.516C58.302 114.865 66.985 106.753 66.985 106.753C66.985 106.753 76.512 102.116 77.5335 98.2874C77.8888 96.9753 79.0547 94.534 80.4482 91.8972C81.7474 89.4118 83.2242 86.7687 84.4178 84.706C85.6115 82.6432 86.5497 81.0536 86.5497 81.0536L101.817 80.8896L104.593 80.858L112.727 63.4602C112.727 63.4602 115.619 60.18 120.632 64.0406C122.074 65.1341 123.787 65.6695 125.518 65.5671C127.791 65.4001 129.994 64.6125 131.942 63.271C151.329 57.2783 159.49 68.6203 159.49 68.6203C159.49 68.6203 172.92 67.3271 173.597 68.6203C174.274 69.9134 181.247 68.6203 181.247 68.6203L199.785 66.5512L228.355 61.3407L230.031 77.7607Z" fill="#CED7E7"/>
<path d="M118.484 71.9636L109.812 88.1881C109.812 88.1881 86.1778 107.705 89.5811 92.4398C90.1325 89.8721 90.3292 87.2225 90.164 84.5862C90.114 83.5579 90.0086 82.5297 89.8753 81.5141C89.259 77.3044 88.1693 73.2021 86.633 69.3079C86.4609 68.8411 86.2833 68.3932 86.0779 67.9516C85.8114 67.3208 85.5504 66.69 85.2895 66.097C84.195 63.5791 82.9503 61.149 81.5642 58.8238C81.5642 58.8238 107.241 35.0611 108.091 49.9356C108.277 53.2959 108.952 56.5978 110.09 59.7069L110.289 60.2305C111.718 63.8973 113.773 67.2056 116.335 69.9639C117.005 70.6921 117.724 71.3606 118.484 71.9636Z" fill="#FFA2A2"/>
<path d="M84.1403 87.0337L88.1376 100.552L104.399 103.548L113.726 91.891C113.726 91.891 119.084 83.1984 119.422 83.0029C119.761 82.8073 120.61 74.5058 120.61 74.5058L121.61 69.8126L115.319 67.4092L106.475 78.3222L102.861 80.8455L98.8471 81.9557L85.5227 86.3714L84.1403 87.0337Z" fill="#CED7E7"/>
<path opacity="0.1" d="M125.457 67.3272C125.457 67.3272 121.016 67.2767 119.833 67.712C118.65 68.1472 117.746 69.7747 117.746 69.7747C116.179 73.1763 113.7 75.9227 110.667 77.6157C107.192 79.6801 103.827 81.976 100.59 84.4916C98.0845 84.2123 95.555 84.5322 93.1646 85.4307C90.7741 86.3292 88.5757 87.7863 86.7108 89.7084C84.8503 91.1272 82.6612 91.8868 80.4205 91.891C81.7197 89.4056 83.1965 86.7625 84.3901 84.6998C89.8753 84.0185 101.484 81.6025 101.484 81.6025L101.79 80.8833C102.867 78.3601 106.514 69.8378 107.858 67.2641C109.423 64.2614 114.331 54.8812 114.487 54.5848L109.668 59.5934L112.244 52.5409L112.338 52.4842L112.804 52.1688L112.954 52.0741C114.67 50.9997 116.558 50.3262 118.506 50.0934C124.585 54.5091 125.451 62.1419 125.518 65.5798C125.527 66.1631 125.506 66.7465 125.457 67.3272Z" fill="black"/>
<path opacity="0.1" d="M85.6948 65.8385L86.955 68.9925C86.955 68.9925 86.8496 69.0935 86.6275 69.2827C86.4554 68.8159 86.2777 68.368 86.0723 67.9265C85.8058 67.2956 85.5449 66.6648 85.2839 66.0719C85.4172 65.9836 85.5393 65.8889 85.6615 65.8132L85.6948 65.8385Z" fill="black"/>
<path opacity="0.1" d="M116.358 69.9639C114.828 72.1936 112.885 74.0134 110.667 75.2943C107.191 77.3594 103.826 79.6575 100.59 82.1764C96.9807 81.7707 93.3472 82.6104 90.1639 84.5861C90.114 83.5579 90.0085 82.5297 89.8752 81.5141C95.3383 80.5552 101.484 79.2747 101.484 79.2747C101.484 79.2747 106.27 67.9768 107.858 64.9363C108.413 63.9144 109.323 62.1292 110.312 60.2305C111.741 63.8973 113.796 67.2056 116.358 69.9639Z" fill="black"/>
<path d="M125.457 66.1664C125.457 66.1664 121.016 66.116 119.827 66.5512C118.639 66.9865 117.746 68.6203 117.746 68.6203C116.178 72.0193 113.698 74.7632 110.667 76.455C107.192 78.5193 103.827 80.8153 100.59 83.3308C98.0846 83.0532 95.5554 83.3738 93.1652 84.2722C90.7749 85.1706 88.5764 86.6269 86.7107 88.5477C85.4063 89.5442 83.9306 90.2147 82.3811 90.5149C80.8316 90.815 79.2436 90.7379 77.7223 90.2887C72.6812 88.699 72.4314 80.877 73.1309 77.9058C73.6861 75.5718 82.0916 69.5161 85.7114 66.9928L86.9717 70.1784C84.3461 72.4652 81.5961 74.5615 78.7383 76.455C73.3142 80.1452 76.0568 84.132 76.0568 84.132C78.0084 83.7478 79.9904 83.5998 81.9695 83.6904C84.7787 83.9049 101.484 80.4291 101.484 80.4291C101.484 80.4291 106.27 69.125 107.858 66.0907C109.446 63.0565 114.331 53.7079 114.487 53.4114L109.668 58.4579L112.244 51.4054L112.338 51.3487L112.804 51.0333L112.954 50.9386C114.67 49.8642 116.558 49.1907 118.506 48.9579C126.501 54.7172 125.457 66.1664 125.457 66.1664Z" fill="#CED7E7"/>
<path opacity="0.1" d="M110.112 59.7195C107.614 64.1052 103.827 67.3404 99.4247 68.8481C95.0228 70.3559 90.2927 70.0381 86.0779 67.9516C84.7951 64.7741 83.2855 61.7213 81.5642 58.8238C81.5642 58.8238 107.241 35.0611 108.091 49.9356C108.283 53.3016 108.966 56.608 110.112 59.7195Z" fill="black"/>
<path d="M112.727 46.5923C112.727 47.1433 112.71 47.6857 112.677 48.2198C112.312 53.99 109.968 59.3668 106.15 63.1938C102.332 67.0208 97.344 68.9922 92.2597 68.684C87.1755 68.3757 82.4009 65.8124 78.9628 61.5454C75.5248 57.2784 73.6981 51.6487 73.8756 45.8672C74.0531 40.0857 76.2206 34.6143 79.912 30.6299C83.6033 26.6455 88.5236 24.4664 93.6144 24.5615C98.7051 24.6565 103.56 27.018 107.134 31.138C110.708 35.258 112.716 40.8073 112.727 46.5923Z" fill="#FFA2A2"/>
<path opacity="0.1" d="M62.3771 117.559C62.3771 117.559 66.6464 126.636 71.8985 131.632C77.1505 136.628 80.2262 144.387 80.2262 144.387C80.2262 144.387 78.6995 129.342 62.3771 117.559Z" fill="black"/>
<path opacity="0.1" d="M55.7426 140.356C55.7426 140.356 70.7325 136.105 78.2775 140.356H55.7426Z" fill="black"/>
<path opacity="0.1" d="M50.3018 165.696L66.4298 159.388C66.4298 159.388 56.0979 167.79 50.3018 165.696Z" fill="black"/>
<path opacity="0.1" d="M22.4149 190.392C22.4149 190.392 29.388 190.007 31.5976 192.518C31.5976 192.518 24.7967 193.098 22.4149 190.392Z" fill="black"/>
<path opacity="0.1" d="M185.128 68.1787C185.128 68.1787 169.494 78.7259 168.8 95.7263L185.128 68.1787Z" fill="black"/>
<path opacity="0.1" d="M204.015 84.1321C204.015 84.1321 184.628 88.5793 181.397 90.8944C178.166 93.2095 171.199 94.3701 171.199 94.3701C171.199 94.3701 199.252 90.1248 204.015 84.1321Z" fill="black"/>
<path opacity="0.1" d="M147.148 177.372C145.738 179.038 128.333 183.731 112.777 187.655C111.365 187.761 109.949 187.78 108.535 187.711C104.177 187.459 99.6521 189.446 95.8214 191.831C91.1245 192.966 88.0877 193.679 88.0877 193.679C88.0877 193.679 82.9744 189.099 90.0253 178.76C97.0761 168.421 98.3142 152.108 98.3142 152.108L129.704 142.987C129.704 142.987 138.171 156.234 142.224 158.36C146.276 160.486 149.757 174.307 147.148 177.372Z" fill="black"/>
<path d="M146.038 177.833C144.672 179.46 127.889 184.015 112.888 187.831C111.526 187.932 110.16 187.949 108.796 187.882C104.593 187.636 100.213 189.566 96.5374 191.887C92.0071 192.985 89.0758 193.679 89.0758 193.679C89.0758 193.679 84.1457 189.232 90.9467 179.17C97.7477 169.109 98.9358 153.275 98.9358 153.275L129.204 144.393C129.204 144.393 137.366 157.262 141.274 159.331C145.183 161.4 148.536 174.862 146.038 177.833Z" fill="#CED7E7"/>
<path opacity="0.1" d="M121.465 304.475L112.727 310.354C112.213 308.155 111.822 305.922 111.555 303.667C112.827 304.872 121.465 304.475 121.465 304.475Z" fill="black"/>
<path opacity="0.1" d="M113.204 312.385C116.291 311.716 123.619 310.051 127.639 308.487C123.997 310.505 117.407 313.88 113.665 314.164C113.493 313.577 113.348 312.972 113.204 312.385Z" fill="black"/>
<path opacity="0.1" d="M130.215 306.998C129.893 307.446 128.949 307.95 127.644 308.461C129.204 307.629 130.215 306.998 130.215 306.998Z" fill="black"/>
<path opacity="0.1" d="M135.489 355.571C133.013 355.804 128.988 355.425 126.606 355.148L125.796 352.587C128.344 352.896 133.402 353.382 135.489 352.675C138.337 351.716 139.192 355.236 135.489 355.571Z" fill="black"/>
<path opacity="0.1" d="M157.613 304.229C157.202 304.166 150.596 303.32 146.343 303.295C146.343 301.642 146.415 300.141 146.498 298.924C149.43 300.33 157.175 304.058 157.613 304.229Z" fill="black"/>
<path d="M152.75 387.307C151.984 390.896 139.614 390.265 139.614 390.265L138.593 391.804C138.593 391.804 133.835 393.785 130.265 392.624C126.695 391.464 115.83 391.71 115.83 391.71V387.742C115.83 382.576 120.932 380.885 120.932 380.885C120.932 380.885 125.224 376.829 126.712 372.722C127.639 370.18 128.717 367.713 129.937 365.335C129.937 365.335 125.946 359.828 136.655 358.397C147.204 357.009 143.067 367.89 142.951 368.193C143.123 368.016 147.081 363.973 149.28 365.247C150.868 366.174 152.306 374.955 152.755 381.314C152.961 384.014 152.972 386.253 152.75 387.307Z" fill="#CED7E7"/>
<path opacity="0.1" d="M152.75 387.307C151.984 390.896 139.614 390.265 139.614 390.265L138.593 391.804C138.593 391.804 133.835 393.785 130.265 392.624C126.695 391.464 115.83 391.71 115.83 391.71V387.925C122.37 388.291 135.461 388.783 138.404 387.061C138.404 387.061 141.929 386.045 142.74 385.37C143.423 384.796 150.607 382.128 152.733 381.339C152.961 384.014 152.972 386.253 152.75 387.307Z" fill="black"/>
<path d="M179.826 387.704C168.561 389.105 162.693 386.007 162.693 386.007C161.76 385.357 160.962 384.486 160.354 383.453C159.745 382.419 159.34 381.249 159.168 380.021C158.574 375.82 152.916 371.574 152.916 371.574C152.916 371.574 145.949 372.344 145.094 370.022C144.888 369.038 144.81 368.024 144.861 367.013C144.861 360.787 146.232 347.711 147.814 347.9C149.68 348.133 155.448 356.813 156.025 357.684C155.52 356.75 150.501 347.029 161.633 345.875C161.633 345.875 170.727 340.034 169.794 353.653L173.619 363.02C173.619 363.02 181.147 375.637 183.013 375.195C183.907 374.987 185.789 377.51 186.288 380.361C186.827 383.471 185.711 386.972 179.826 387.704Z" fill="#CED7E7"/>
<path opacity="0.1" d="M112.727 46.5923C112.727 47.1432 112.71 47.6857 112.677 48.2198L112.205 48.4217L110.378 49.1787C110.07 49.3287 109.741 49.4142 109.407 49.431C109.146 49.4187 108.89 49.339 108.661 49.198C108.431 49.057 108.232 48.8584 108.08 48.6172C107.817 48.161 107.629 47.6545 107.525 47.1222L106.142 41.0853C105.865 39.8868 105.437 38.5053 104.255 38.0574C103.909 37.9715 103.57 37.8577 103.239 37.7168C102.5 37.3194 102.345 36.3858 102.095 35.6036C101.54 33.7805 100.057 32.3234 98.4529 31.1879C97.3682 30.325 96.0794 29.8545 94.7554 29.838C94.0463 29.8505 93.3609 30.1301 92.8067 30.6328C91.6463 31.7493 91.8073 33.257 91.9461 34.8466C92.0849 36.4363 92.4569 38.1331 92.0461 39.7228C91.7685 40.7573 91.1744 41.7225 91.0689 42.7949C90.9801 43.6591 91.2299 44.5359 91.1855 45.4001C91.1769 45.8669 91.0296 46.3166 90.7675 46.6762C90.5054 47.0358 90.144 47.2842 89.7421 47.3809C89.6699 46.8573 88.9981 46.687 88.5484 46.4031C87.5324 45.7723 87.4769 44.3971 87.5213 43.249C87.599 41.5332 87.6712 39.8111 87.7434 38.0953C87.2948 41.9329 86.599 45.728 85.6614 49.4499C85.546 50.097 85.2816 50.6978 84.8953 51.191C84.6676 51.4486 84.3773 51.6229 84.0616 51.6915C83.746 51.7601 83.4195 51.7197 83.1243 51.5758C82.7807 51.3295 82.5265 50.9511 82.4081 50.5097C81.6988 48.5111 81.4541 46.3387 81.6974 44.2016C81.0812 46.9961 80.4649 49.8221 79.2768 52.4463C78.8049 53.4871 78.0887 54.6163 76.9284 54.8244C76.5744 54.8372 76.2235 54.9029 75.8847 55.02C75.7495 55.093 75.6272 55.1935 75.5238 55.3165C74.3924 52.3154 73.8625 49.066 73.9724 45.8035C74.0823 42.5411 74.8293 39.3472 76.1592 36.4532C77.4892 33.5591 79.3688 31.0373 81.6621 29.0701C83.9554 27.103 86.6049 25.7399 89.4189 25.0795C92.2329 24.419 95.1409 24.4777 97.9325 25.2514C100.724 26.025 103.329 27.4943 105.56 29.5527C107.79 31.6112 109.59 34.2073 110.828 37.1533C112.067 40.0992 112.713 43.3212 112.721 46.586L112.727 46.5923Z" fill="black"/>
<path d="M92.8066 29.5037C93.3595 28.9974 94.0454 28.7154 94.7553 28.7025C96.0791 28.7211 97.3674 29.1914 98.4529 30.0525C100.057 31.1627 101.517 32.6136 102.095 34.4682C102.345 35.2504 102.495 36.1903 103.205 36.5877C103.538 36.722 103.877 36.8336 104.221 36.922C105.409 37.3699 105.837 38.7514 106.109 39.9499L107.502 45.9868C107.593 46.5187 107.772 47.0261 108.03 47.4818C108.182 47.7242 108.38 47.924 108.61 48.0661C108.84 48.2082 109.095 48.2888 109.357 48.3019C109.694 48.2849 110.025 48.1973 110.334 48.0432L112.16 47.2863C113.121 46.8889 114.165 46.4158 114.603 45.4948C114.833 44.9005 114.91 44.2443 114.825 43.6023C114.719 41.6751 114.481 39.7602 114.115 37.8745L116.213 39.4957C116.718 39.8805 117.351 40.2906 117.951 40.0761C118.146 39.9934 118.321 39.8604 118.463 39.6873C118.604 39.5143 118.709 39.3062 118.767 39.0794C119.145 37.8935 118.873 36.4741 119.661 35.4964C119.85 35.2693 120.083 35.0737 120.249 34.834C120.966 33.7869 120.116 32.3676 120.41 31.1438C120.694 31.2707 121.006 31.2882 121.299 31.1936C121.592 31.099 121.849 30.8975 122.032 30.6202C122.32 30.0912 122.461 29.4756 122.437 28.8539C122.603 25.2899 122.681 21.4293 120.533 18.5275C120.927 15.6132 118.206 12.4402 115.197 12.0428C114.448 11.9419 113.532 11.8914 113.204 11.2417C113.088 10.929 113.036 10.5901 113.054 10.2513C112.976 9.14736 112.327 8.1633 111.7 7.236C111.449 6.827 111.141 6.46696 110.789 6.16993C109.795 5.42557 108.38 5.62743 107.147 5.87975C104.886 6.33814 102.639 6.85331 100.407 7.42525C100.145 6.17869 100.162 4.87745 100.457 3.64038C100.685 2.70677 101.073 1.74793 100.651 0.814331C100.544 0.581099 100.385 0.383496 100.191 0.240857C99.9961 0.0982182 99.7723 0.015432 99.541 0.000587206C99.2474 -0.00815888 98.9579 0.0809599 98.7083 0.256951C98.4587 0.432942 98.2599 0.688101 98.1364 0.990957C96.8579 3.16318 95.9745 5.60389 95.5381 8.1696C94.6993 7.49533 93.7242 7.07245 92.7033 6.94013C91.6824 6.80781 90.6486 6.97033 89.6976 7.41263C89.2177 7.71924 88.696 7.93245 88.1542 8.04344C87.7027 8.03635 87.2606 7.89597 86.8712 7.63608C86.4819 7.37618 86.1587 7.0057 85.9335 6.56103C85.3228 5.48865 85.0452 4.21441 83.8571 3.51421C83.5927 3.35566 83.2983 3.2728 82.9993 3.2728C82.7004 3.2728 82.4059 3.35566 82.1416 3.51421C80.5704 4.55505 82.5302 7.13507 81.3643 8.49131C81.0407 8.80783 80.6625 9.04416 80.2539 9.18521L77.3392 10.4027C75.7855 11.1569 74.1366 11.6274 72.4536 11.7968C70.5216 11.8851 68.5673 11.2101 66.6686 11.6643C67.4322 12.6521 68.4467 13.3464 69.5722 13.6514C70.2606 13.8469 70.9879 13.91 71.6597 14.1623C71.9854 14.2447 72.2873 14.42 72.537 14.6716C72.7866 14.9232 72.9757 15.2429 73.0865 15.6006C73.2364 16.49 72.4814 17.3479 72.6313 18.2374C72.7453 18.6192 72.9761 18.9418 73.2817 19.1467C73.5874 19.3516 73.9475 19.4251 74.2968 19.3539L70.8491 21.8771C70.2273 22.3313 69.5333 22.9937 69.7665 23.7128L70.8769 24.0787L67.8844 28.9549C67.4957 29.4491 67.2735 30.0838 67.2571 30.7464C67.2862 30.9162 67.3457 31.0774 67.432 31.22C67.5182 31.3626 67.6294 31.4835 67.7585 31.5752C67.8876 31.6669 68.032 31.7275 68.1826 31.7531C68.3332 31.7787 68.4868 31.7688 68.6339 31.7241C67.9169 32.5726 67.3513 33.5709 66.9684 34.6637C66.8987 34.8067 66.8599 34.9665 66.8551 35.1299C66.8503 35.2933 66.8796 35.4556 66.9406 35.6036C67.0725 35.7658 67.2364 35.8898 67.4189 35.9655C67.6014 36.0412 67.7972 36.0664 67.9899 36.0389C69.6 36.0389 71.0934 34.7773 71.321 33.2191C71.8151 33.85 71.2877 34.5943 70.8158 35.2314C68.9226 37.8178 66.9906 40.4546 65.9857 43.4698C64.9808 46.4851 65.0253 50.0051 66.9073 52.5977C67.324 53.0994 67.6959 53.6466 68.0177 54.2315C68.6173 55.531 68.2731 57.1963 69.2058 58.3002C69.9557 55.9648 70.8653 53.6996 71.9262 51.5253C71.8662 52.2901 71.768 53.0504 71.6319 53.8026C71.5872 54.2008 71.655 54.6049 71.8257 54.9564C71.9963 55.3079 72.261 55.5887 72.5813 55.7581C73.5584 56.1618 74.5744 55.2976 75.2129 54.4964C75.3717 54.2582 75.5744 54.0623 75.8069 53.9224C76.1444 53.8079 76.4932 53.7422 76.8451 53.7269C78.0054 53.5187 78.7161 52.3959 79.1935 51.3487C80.3816 48.7308 81.0034 45.9048 81.6141 43.0977C81.369 45.2354 81.6158 47.4088 82.3303 49.4058C82.4451 49.8476 82.6978 50.2266 83.041 50.4719C83.337 50.6134 83.6635 50.6517 83.9788 50.5821C84.2941 50.5125 84.5841 50.338 84.812 50.0808C85.1995 49.5884 85.464 48.9873 85.5782 48.3397C86.5136 44.6172 87.2094 40.8223 87.6601 36.9851L87.438 42.1388C87.388 43.2995 87.438 44.6621 88.4595 45.2929C88.9203 45.5768 89.5699 45.7471 89.6587 46.2644C90.0611 46.172 90.4234 45.9255 90.6851 45.5662C90.9468 45.2068 91.0921 44.7563 91.0967 44.2899C91.1466 43.4194 90.8968 42.5489 90.9856 41.6783C91.0911 40.6123 91.6907 39.6471 91.9628 38.6063C92.3736 37.023 92.0127 35.3639 91.8628 33.7364C91.7129 32.1089 91.6296 30.6139 92.8066 29.5037Z" fill="#896363"/>
<path opacity="0.1" d="M179.826 387.704C168.561 389.104 162.693 386.007 162.693 386.007C161.76 385.357 160.962 384.486 160.354 383.453C159.745 382.419 159.34 381.249 159.168 380.021C158.574 375.82 152.916 371.574 152.916 371.574C152.916 371.574 145.949 372.344 145.094 370.022C144.888 369.037 144.81 368.024 144.861 367.013C147.437 367.714 153.372 369.322 155.209 369.921C157.597 370.691 164.57 383.541 164.57 383.541C171.282 387.553 182.391 382.405 186.288 380.387C186.827 383.471 185.711 386.972 179.826 387.704Z" fill="black"/>
<path opacity="0.1" d="M129.937 365.335C129.937 365.335 126.506 371.316 142.951 368.225L129.937 365.335Z" fill="black"/>
<path opacity="0.1" d="M156.031 357.684C156.031 357.684 173.375 361.967 169.8 353.653L156.031 357.684Z" fill="black"/>
<g opacity="0.1">
<path opacity="0.1" d="M72.7535 17.165C72.6583 17.4439 72.6277 17.7458 72.6646 18.0419C72.7373 18.3823 72.9247 18.6768 73.1865 18.8619L74.358 18.004C74.0471 18.0666 73.7269 18.0198 73.4402 17.8698C73.1534 17.7199 72.9138 17.474 72.7535 17.165Z" fill="black"/>
<path opacity="0.1" d="M69.5778 13.4621C70.2718 13.6577 70.9991 13.7208 71.6709 13.9731C72.2318 14.1424 72.712 14.5545 73.0089 15.1212C73.1043 14.8446 73.1349 14.5447 73.0977 14.2507C72.9869 13.893 72.7978 13.5733 72.5481 13.3217C72.2985 13.07 71.9966 12.8948 71.6709 12.8124C70.9991 12.5601 70.2718 12.497 69.5778 12.3014C68.9016 12.1092 68.2606 11.7824 67.6846 11.3363C67.3469 11.3509 67.0108 11.3973 66.6798 11.4751C67.4421 12.4615 68.4544 13.1556 69.5778 13.4621Z" fill="black"/>
<path opacity="0.1" d="M72.0095 50.1754C70.9469 52.3496 70.0354 54.6148 69.2836 56.9504C68.3564 55.8464 68.6951 54.1811 68.0955 52.8816C67.7757 52.2952 67.4036 51.7477 66.9851 51.2478C66.0392 49.9287 65.4922 48.2986 65.4251 46.5988C65.2714 48.6908 65.8298 50.7702 66.9851 52.4085C67.4036 52.9084 67.7757 53.4559 68.0955 54.0423C68.6951 55.3418 68.3564 57.0008 69.2836 58.1111C69.9892 55.927 70.8335 53.804 71.8097 51.7588C71.9312 51.2419 71.9983 50.7104 72.0095 50.1754Z" fill="black"/>
<path opacity="0.1" d="M67.4182 29.7623C67.3196 30.0114 67.2795 30.2852 67.3016 30.5571C67.3335 30.7507 67.4048 30.9332 67.5099 31.0898C67.615 31.2465 67.7509 31.373 67.9067 31.4592C68.1386 31.0752 68.3967 30.7124 68.6784 30.3742C68.4386 30.4568 68.1808 30.4408 67.9503 30.3289C67.7198 30.217 67.5314 30.0164 67.4182 29.7623Z" fill="black"/>
<path opacity="0.1" d="M100.279 4.91457C100.304 4.42003 100.372 3.92963 100.485 3.45109C100.685 2.64365 100.996 1.8236 100.801 1.00354C100.724 1.43249 100.59 1.86775 100.485 2.26516C100.279 3.12746 100.209 4.02458 100.279 4.91457Z" fill="black"/>
<path opacity="0.1" d="M81.5809 4.20813C81.5187 4.94212 81.5694 5.68283 81.7308 6.39705C81.7949 5.66308 81.7441 4.92201 81.5809 4.20813Z" fill="black"/>
<path opacity="0.1" d="M71.3822 31.8693C71.1323 33.4021 69.6333 34.6575 68.0511 34.689C67.7008 34.7205 67.3532 34.5986 67.0795 34.3483L67.0295 34.4745C66.9603 34.6175 66.9212 34.7769 66.9154 34.94C66.9096 35.1031 66.9373 35.2655 66.9962 35.4144C67.1297 35.5755 67.2949 35.6984 67.4783 35.773C67.6616 35.8475 67.8579 35.8716 68.0511 35.8434C68.7063 35.8307 69.3474 35.6242 69.9109 35.2441C70.2385 34.7836 70.5716 34.3294 70.8992 33.8816C71.0727 33.6547 71.2323 33.4144 71.3766 33.1624C71.3885 33.119 71.3978 33.0748 71.4044 33.03V33.0615C71.5216 32.89 71.5834 32.678 71.5794 32.4609C71.5753 32.2438 71.5057 32.0349 71.3822 31.8693Z" fill="black"/>
<path opacity="0.1" d="M70.0719 22.4512C69.9432 22.5833 69.8499 22.754 69.8027 22.9437C69.7556 23.1335 69.7565 23.3344 69.8054 23.5236L70.3273 23.6939L70.9158 22.7287L70.0719 22.4512Z" fill="black"/>
<path opacity="0.1" d="M120.277 33.5219C120.111 33.7616 119.877 33.9572 119.689 34.1527C118.895 35.1305 119.172 36.5498 118.795 37.7357C118.736 37.9621 118.631 38.1698 118.49 38.3427C118.348 38.5156 118.173 38.649 117.979 38.7324C117.379 38.9469 116.746 38.5369 116.241 38.1521L114.142 36.5309C114.226 36.9725 114.303 37.4203 114.376 37.8682L116.241 39.3065C116.746 39.6976 117.379 40.1076 117.979 39.8931C118.173 39.8088 118.347 39.6751 118.489 39.5024C118.63 39.3296 118.735 39.1223 118.795 38.8964C119.172 37.7105 118.895 36.2912 119.689 35.3134C119.877 35.08 120.111 34.8908 120.277 34.6511C120.423 34.3965 120.519 34.1097 120.561 33.8096C120.602 33.5095 120.587 33.2029 120.516 32.91C120.479 33.1321 120.397 33.3414 120.277 33.5219Z" fill="black"/>
<path opacity="0.1" d="M114.842 43.3185C114.819 43.6068 114.747 43.8873 114.631 44.1449C114.192 45.0659 113.149 45.539 112.183 45.9364L110.362 46.6934C110.052 46.8445 109.721 46.932 109.384 46.952C109.123 46.939 108.868 46.8583 108.638 46.7162C108.408 46.5741 108.209 46.3743 108.058 46.1319C107.793 45.6768 107.605 45.1699 107.502 44.6369L106.114 38.6C105.837 37.4015 105.415 36.02 104.227 35.5721C103.883 35.4837 103.543 35.3721 103.211 35.2378C102.472 34.8341 102.317 33.9005 102.1 33.1183C101.545 31.2889 100.063 29.8381 98.4585 28.7026C97.3725 27.8426 96.0845 27.3723 94.7609 27.3527C94.0508 27.3646 93.3647 27.6467 92.8122 28.1538C91.8851 29.0432 91.8018 30.185 91.874 31.4214C91.8952 31.0151 91.9894 30.618 92.1508 30.2546C92.3122 29.8911 92.5373 29.5691 92.8122 29.3082C93.3672 28.8061 94.0517 28.5247 94.7609 28.507C96.0837 28.5324 97.3702 29.0022 98.4585 29.857C100.063 30.9735 101.523 32.4244 102.1 34.2727C102.345 35.0549 102.5 35.9885 103.211 36.3922C103.543 36.5265 103.883 36.6381 104.227 36.7265C105.415 37.1744 105.837 38.5559 106.114 39.7544L107.502 45.785C107.603 46.3186 107.791 46.8258 108.058 47.28C108.208 47.5242 108.406 47.7257 108.636 47.869C108.866 48.0123 109.122 48.0935 109.384 48.1064C109.721 48.0834 110.051 47.9959 110.362 47.8477L112.171 47.1034C113.138 46.706 114.181 46.2329 114.62 45.3119C114.85 44.7176 114.927 44.0614 114.842 43.4194C114.847 43.4068 114.847 43.369 114.842 43.3185Z" fill="black"/>
<path opacity="0.1" d="M122.465 27.5482C122.489 28.1699 122.348 28.7855 122.059 29.3145C121.877 29.5917 121.62 29.7932 121.327 29.8878C121.034 29.9825 120.722 29.965 120.438 29.8381C120.359 30.2538 120.359 30.684 120.438 31.0997V31.0114C120.722 31.1383 121.034 31.1558 121.327 31.0612C121.62 30.9665 121.877 30.7651 122.059 30.4878C122.347 29.9585 122.488 29.3431 122.465 28.7215C122.515 27.6933 122.553 26.6398 122.531 25.599C122.52 26.2361 122.492 26.9174 122.465 27.5482Z" fill="black"/>
<path opacity="0.1" d="M81.6975 41.7289C81.1772 44.5773 80.3648 47.3465 79.2769 49.9799C78.7994 51.027 78.0888 52.1499 76.9229 52.3581C76.5711 52.3744 76.2224 52.4401 75.8847 52.5536C75.6548 52.6952 75.4542 52.8909 75.2962 53.1276C74.6578 53.9477 73.6307 54.8119 72.6646 54.3893C72.4356 54.2881 72.2331 54.122 72.0766 53.9066C71.9201 53.6913 71.8148 53.4339 71.7708 53.1592C71.7708 53.3106 71.7264 53.4557 71.7153 53.6008C71.6654 53.9988 71.7311 54.4044 71.9025 54.7562C72.0738 55.1079 72.3414 55.3866 72.6646 55.55C73.6418 55.96 74.6578 55.0895 75.2962 54.2884C75.456 54.0552 75.6563 53.8619 75.8847 53.7206C76.2211 53.601 76.5705 53.5352 76.9229 53.5251C78.0888 53.3169 78.7994 52.1941 79.2769 51.1469C80.3166 48.6487 81.0972 46.0216 81.6031 43.3185C81.6039 42.7869 81.6354 42.2558 81.6975 41.7289Z" fill="black"/>
<path opacity="0.1" d="M87.7434 35.6351C87.2927 39.4724 86.5969 43.2673 85.6615 46.9898C85.5476 47.6387 85.2809 48.2404 84.8898 48.7308C84.6623 48.9887 84.3723 49.1637 84.0568 49.2334C83.7413 49.3031 83.4147 49.2643 83.1187 49.1219C82.7794 48.8734 82.5293 48.4953 82.4137 48.0558C81.9544 46.7459 81.6917 45.3578 81.6364 43.9492C81.5642 45.7495 81.835 47.5462 82.4303 49.2165C82.5457 49.6578 82.7957 50.038 83.1354 50.2889C83.4316 50.4296 83.7579 50.4675 84.073 50.3979C84.3882 50.3283 84.6781 50.1543 84.9064 49.8978C85.2966 49.4067 85.5632 48.8053 85.6781 48.1568C86.5671 44.6162 87.2387 41.0098 87.6879 37.3636L87.7434 35.6351Z" fill="black"/>
<path opacity="0.1" d="M92.0406 37.2753C91.7685 38.3161 91.1745 39.2749 91.069 40.3473C91.0329 40.6931 91.0329 41.0424 91.069 41.3882C91.2022 40.3662 91.763 39.439 92.0239 38.436C92.2001 37.7032 92.2584 36.9403 92.196 36.184C92.177 36.5528 92.1249 36.9185 92.0406 37.2753Z" fill="black"/>
<path opacity="0.1" d="M89.7421 44.9334C89.6644 44.4161 88.9981 44.2458 88.5429 43.9619C88.2264 43.7298 87.9671 43.4099 87.7893 43.0325C87.6116 42.6551 87.5213 42.2326 87.5269 41.8046V41.9496C87.4769 43.1103 87.5269 44.4729 88.5484 45.1037C89.0037 45.3876 89.6588 45.5516 89.7476 46.0752C90.1495 45.9793 90.5108 45.731 90.7721 45.3711C91.0334 45.0112 91.1792 44.561 91.1856 44.0944C91.1985 43.7955 91.1892 43.4958 91.1578 43.1987C91.1166 43.622 90.9568 44.0192 90.7019 44.3315C90.447 44.6438 90.1105 44.8548 89.7421 44.9334Z" fill="black"/>
</g>
</svg>
