<svg width="568" height="466" viewBox="0 0 568 466" fill="none" xmlns="http://www.w3.org/2000/svg">
<path d="M426.939 95.935C411.459 39.77 360.012 0 300.91 0C266.838 0 234.454 13.212 210.201 36.641C195.277 28.188 178.483 23.773 160.939 23.773C109.882 23.773 67.304 62.576 61.462 112.236C25.416 127.451 0 162.933 0 204.609C0 277.08 74.944 325.548 140.869 296.058C168.247 327.352 208.206 345.698 250.158 345.698C288.6 345.698 325.22 330.441 352.404 303.463C425.791 339.469 512 285.737 512 203.831C512 152.545 476.662 107.882 426.939 95.935Z" fill="#2274A5"/>
<path d="M441.393 349.007C438.007 336.708 426.753 328 413.824 328C406.371 328 399.287 330.893 393.981 336.023C390.717 334.172 387.043 333.206 383.205 333.206C372.037 333.206 362.723 341.702 361.445 352.576C353.56 355.908 348 363.678 348 372.804C348 388.673 364.394 399.286 378.815 392.828C384.804 399.681 393.545 403.698 402.722 403.698C411.131 403.698 419.142 400.357 425.088 394.45C441.142 402.334 460 390.568 460 372.633C460 361.403 452.27 351.623 441.393 349.007Z" fill="#2274A5"/>
<path d="M549.393 411.007C546.007 398.708 534.753 390 521.824 390C514.371 390 507.287 392.893 501.981 398.023C498.717 396.172 495.043 395.206 491.205 395.206C480.037 395.206 470.723 403.702 469.445 414.576C461.56 417.908 456 425.678 456 434.804C456 450.673 472.394 461.286 486.815 454.828C492.804 461.681 501.545 465.698 510.722 465.698C519.131 465.698 527.142 462.357 533.088 456.45C549.142 464.334 568 452.568 568 434.633C568 423.403 560.27 413.623 549.393 411.007Z" fill="#2274A5"/>
</svg>
